<svg id="Calque_1" data-name="Calque 1" xmlns="http://www.w3.org/2000/svg" viewBox="0 0 425.2 425.2"><defs><style>.cls-1{fill:#141412;}.cls-2{fill:#f7f7f7;}.cls-3{fill:#88be8c;}</style></defs><title>LOGO_BIBS_150x150mm</title><circle class="cls-1" cx="212.6" cy="212.6" r="125.3"/><path class="cls-2" d="M236.48,262.29A31.27,31.27,0,0,1,260,232c-.8-15.71-9.77-23.83-24-29.26,9.17-5.14,16.88-13.2,16.88-27.7v-.37c0-8.8-2.93-16-8.8-21.83-7.34-7.33-18.9-11.37-33.57-11.37H150.94V269.89H212a74.64,74.64,0,0,0,24.71-3.72A31,31,0,0,1,236.48,262.29Zm-58-96.05h27.88c11.92,0,18.53,4.78,18.53,13.22v.36c0,9.54-7.89,13.57-20.36,13.57h-26ZM232,231.18c0,9.55-7.52,13.95-20,13.95H178.46V216.87h32.65c14.49,0,20.91,5.33,20.91,13.95Z"/><circle class="cls-3" cx="267.77" cy="262.29" r="22.46"/></svg>