<svg id="Calque_1" data-name="Calque 1" xmlns="http://www.w3.org/2000/svg" viewBox="0 0 425.2 425.2"><defs><style>.cls-1{fill:#141412;}.cls-2{fill:#88be8c;}</style></defs><title>LOGO_BIBS_150x150mm</title><path class="cls-1" d="M214.22,170V227.8H207.7V170Z"/><path class="cls-1" d="M274.58,184.46c0,7.59-4.63,11.48-9.17,13.46,6.85,2.06,12.39,6,12.39,14,0,10-8.34,15.85-21,15.85H231.15V170h24.6C267.15,170,274.58,175.63,274.58,184.46Zm-6.61.91c0-5.78-4.54-9.5-12.79-9.5H237.59v19.9h17.09C262.52,195.77,268,192.22,268,185.37Zm3.22,26.17c0-6.36-5.28-10-15.36-10H237.59v20.39H257C265.74,221.94,271.19,218.06,271.19,211.54Z"/><path class="cls-1" d="M311.51,195.77c12.88,2.81,18.82,7.51,18.82,16.43,0,10-8.26,16.43-19.72,16.43-9.17,0-16.69-3.06-23.62-9.25l4-4.79c6,5.45,11.81,8.18,19.82,8.18,7.76,0,12.88-4.05,12.88-9.91,0-5.45-2.89-8.5-15-11.06-13.29-2.89-19.4-7.18-19.4-16.76,0-9.25,8-15.85,19-15.85a30.1,30.1,0,0,1,20.3,7.1l-3.79,5c-5.36-4.37-10.73-6.27-16.67-6.27-7.51,0-12.31,4.13-12.31,9.41C295.82,190,298.8,193.05,311.51,195.77Z"/><path class="cls-1" d="M207.43,241.92h7.94a7,7,0,0,1,5,1.7,4.18,4.18,0,0,1,1.23,3v.06a4.75,4.75,0,0,1-3.27,4.56c2.31.6,4.34,1.92,4.34,4.58v.06c0,3.21-2.74,5.24-6.89,5.24h-8.35Zm12.72,4.86c0-2.11-1.73-3.54-4.81-3.54h-6.48v7.55h6.34c2.88,0,5-1.4,5-3.95Zm-4.78,5.33h-6.51v7.71h7c3.3,0,5.39-1.51,5.39-3.92v-.06C221.22,253.48,219.16,252.11,215.37,252.11Z"/><path class="cls-1" d="M227.25,241.92h13.67v1.32H228.68v7.55h11v1.32h-11v7.71h12.38v1.32H227.25Z"/><path class="cls-1" d="M252.94,241.79h1.38l8.94,19.35H261.7l-2.44-5.38H247.92l-2.44,5.38H244Zm5.71,12.68-5-11.12-5.08,11.12Z"/><path class="cls-1" d="M270.18,243.24h-6.7v-1.32h14.83v1.32h-6.7v17.9h-1.43Z"/><path class="cls-1" d="M279.29,258.81h1.81v2.33h-1.81Z"/><path class="cls-1" d="M207.63,269.37h1.42v19.22h-1.42Z"/><path class="cls-1" d="M215,269.37H223a7.56,7.56,0,0,1,5.4,1.89,5.07,5.07,0,0,1,1.46,3.57v.06c0,3.21-2.39,5.05-5.63,5.49l6.34,8.21h-1.81l-6.12-8h-6.29v8H215Zm7.91,10c3.21,0,5.6-1.62,5.6-4.4v-.05c0-2.58-2-4.2-5.52-4.2h-6.56v8.65Z"/><path class="cls-1" d="M234.8,269.37h8.07a7.58,7.58,0,0,1,5.41,1.89,5.1,5.1,0,0,1,1.45,3.57v.06c0,3.21-2.39,5.05-5.62,5.49l6.34,8.21h-1.81l-6.13-8h-6.28v8H234.8Zm7.91,10c3.21,0,5.6-1.62,5.6-4.4v-.05c0-2.58-2-4.2-5.52-4.2h-6.56v8.65Z"/><path class="cls-1" d="M254.83,269.37h1.43v19.22h-1.43Z"/><path class="cls-1" d="M267.49,270.69h-6.7v-1.32h14.83v1.32h-6.71v17.9h-1.42Z"/><path class="cls-1" d="M284.78,269.23h1.37l9,19.36h-1.56l-2.44-5.38H279.76l-2.45,5.38h-1.48Zm5.71,12.69-5.05-11.12-5.08,11.12Z"/><path class="cls-1" d="M299.16,269.37h7.94a7,7,0,0,1,5,1.7,4.13,4.13,0,0,1,1.24,3v.06a4.74,4.74,0,0,1-3.27,4.55c2.31.61,4.34,1.93,4.34,4.59v0c0,3.22-2.75,5.25-6.89,5.25h-8.35Zm12.71,4.86c0-2.11-1.73-3.54-4.8-3.54h-6.48v7.55h6.34c2.88,0,4.94-1.4,4.94-4Zm-4.77,5.33h-6.51v7.71h7c3.3,0,5.38-1.51,5.38-3.93v0C312.94,280.93,310.88,279.56,307.1,279.56Z"/><path class="cls-1" d="M319,269.37h1.43v17.9h11.28v1.32H319Z"/><path class="cls-1" d="M336,269.37h13.67v1.32H337.39v7.55h11v1.32h-11v7.71h12.39v1.32H336Z"/><path class="cls-1" d="M207.43,296.82h7.94a7,7,0,0,1,5,1.7,4.16,4.16,0,0,1,1.23,3v0a4.75,4.75,0,0,1-3.27,4.56c2.31.61,4.34,1.92,4.34,4.59v.05c0,3.22-2.74,5.25-6.89,5.25h-8.35Zm12.72,4.86c0-2.12-1.73-3.54-4.81-3.54h-6.48v7.55h6.34c2.88,0,5-1.4,5-4ZM215.37,307h-6.51v7.72h7c3.3,0,5.39-1.51,5.39-3.93v-.05C221.22,308.38,219.16,307,215.37,307Z"/><path class="cls-1" d="M226.4,306.48v-.05a9.67,9.67,0,1,1,19.33-.06v.06a9.67,9.67,0,1,1-19.33.05Zm17.85,0v-.05c0-4.75-3.46-8.65-8.21-8.65s-8.16,3.84-8.16,8.59v.06c0,4.75,3.46,8.65,8.21,8.65S244.25,311.23,244.25,306.48Z"/><path class="cls-1" d="M248.14,296.82h1.59l6,17.1,5.63-17.16h1.1l5.63,17.16,6-17.1h1.48l-7,19.35h-1.15l-5.63-16.69-5.63,16.69h-1.15Z"/><path class="cls-1" d="M279.87,296.82h13.67v1.32H281.3v7.55h11V307h-11v7.72h12.38V316H279.87Z"/><path class="cls-1" d="M298.26,296.82h1.42v17.9H311V316H298.26Z"/><path class="cls-1" d="M314,313.24l.93-1.08a9.36,9.36,0,0,0,6.9,2.86c2.88,0,4.86-1.62,4.86-3.82v-.05c0-2-1.08-3.21-5.44-4.09-4.61-.94-6.48-2.5-6.48-5.41v-.06c0-2.85,2.61-5,6.18-5a9.56,9.56,0,0,1,6.59,2.34l-.91,1.12a8.3,8.3,0,0,0-5.74-2.17c-2.83,0-4.69,1.62-4.69,3.63v.05c0,2,1,3.27,5.6,4.2s6.31,2.5,6.31,5.3v.06c0,3.1-2.66,5.24-6.37,5.24A11,11,0,0,1,314,313.24Z"/><path class="cls-1" d="M206.2,340.68l.93-1.07a9.34,9.34,0,0,0,6.89,2.86c2.89,0,4.86-1.62,4.86-3.82v0c0-2-1.07-3.22-5.44-4.09-4.61-.94-6.47-2.5-6.47-5.41V329c0-2.85,2.61-5.05,6.17-5.05a9.61,9.61,0,0,1,6.59,2.33l-.9,1.13a8.3,8.3,0,0,0-5.74-2.17c-2.83,0-4.7,1.62-4.7,3.63v0c0,2,1.05,3.27,5.61,4.2s6.31,2.5,6.31,5.3v.05c0,3.11-2.66,5.25-6.37,5.25A10.93,10.93,0,0,1,206.2,340.68Z"/><path class="cls-1" d="M230.44,335.88l-8.24-11.61H224l7.2,10.32,7.22-10.32h1.7l-8.24,11.58v7.63h-1.42Z"/><path class="cls-1" d="M243.83,324.27h1.34L258.43,341V324.27h1.38v19.21h-1.07L245.2,326.41v17.07h-1.37Z"/><path class="cls-1" d="M265.51,324.27h6.4c6,0,10.21,4.14,10.21,9.55v.05c0,5.41-4.17,9.61-10.21,9.61h-6.4Zm1.43,1.31v16.59h5c5.35,0,8.73-3.66,8.73-8.24v-.06c0-4.55-3.38-8.29-8.73-8.29Z"/><path class="cls-1" d="M287,324.27h8.08a7.56,7.56,0,0,1,5.4,1.89,5.05,5.05,0,0,1,1.46,3.57v0c0,3.22-2.39,5.05-5.63,5.49l6.35,8.21h-1.82l-6.12-8H288.4v8H287Zm7.91,10c3.22,0,5.6-1.62,5.6-4.39v-.06c0-2.58-2-4.2-5.51-4.2H288.4v8.65Z"/><path class="cls-1" d="M306,333.93v-.06a9.67,9.67,0,1,1,19.33-.05v.05a9.68,9.68,0,0,1-9.7,9.94A9.58,9.58,0,0,1,306,333.93Zm17.84,0v-.06c0-4.75-3.46-8.64-8.21-8.64s-8.15,3.84-8.15,8.59v.05c0,4.75,3.46,8.65,8.21,8.65S323.81,338.68,323.81,333.93Z"/><path class="cls-1" d="M330.15,324.27h1.34l7.72,11.36,7.71-11.36h1.35v19.21h-1.43V326.79l-7.6,11.06h-.11l-7.61-11.06v16.69h-1.37Z"/><path class="cls-1" d="M354,324.27h13.68v1.31H355.4v7.55h11v1.32h-11v7.72h12.38v1.31H354Z"/><path class="cls-1" d="M140.62,198.91a30.42,30.42,0,0,1,22.9-29.46c-.78-15.29-9.51-23.18-23.31-28.46,8.92-5,16.42-12.85,16.42-26.95v-.36c0-8.56-2.85-15.52-8.56-21.23-7.14-7.14-18.38-11.07-32.66-11.07h-58V206.3h59.43a72.72,72.72,0,0,0,24-3.62A31.26,31.26,0,0,1,140.62,198.91ZM84.18,105.47h27.13c11.6,0,18,4.65,18,12.86v.35c0,9.28-7.67,13.2-19.8,13.2H84.18Zm52.11,63.17c0,9.29-7.32,13.57-19.45,13.57H84.18V154.72H116c14.09,0,20.34,5.18,20.34,13.57Z"/><circle class="cls-2" cx="171.07" cy="198.91" r="21.84"/></svg>